<?xml version="1.0" encoding="iso-8859-1"?>
<!-- Generator: Adobe Illustrator 19.0.0, SVG Export Plug-In . SVG Version: 6.00 Build 0)  -->
<svg xmlns="http://www.w3.org/2000/svg" xmlns:xlink="http://www.w3.org/1999/xlink" version="1.1" id="Capa_1" x="0px" y="0px" viewBox="0 0 496 496" style="enable-background:new 0 0 496 496;" xml:space="preserve" width="512px" height="512px">
<g>
	<g>
		<path d="M416,312c0-66.168-53.832-120-120-120h-24v-56h128V40H256v152h-32v-57.472c9.288-3.312,16-12.112,16-22.528    s-6.712-19.216-16-22.528V70.528c9.288-3.312,16-12.112,16-22.528s-6.712-19.216-16-22.528V0h-16v25.472    c-9.288,3.312-16,12.112-16,22.528s6.712,19.216,16,22.528V89.48c-9.288,3.312-16,12.112-16,22.528s6.712,19.216,16,22.528V192h-8    c-66.168,0-120,53.832-120,120v8h24.176C99.112,326.704,96,334.968,96,344c0,11.52,4.968,21.832,12.784,29.136    C96.456,379.96,88,392.944,88,408c0,9.04,3.128,17.296,8.208,24H80v24c0,22.056,17.944,40,40,40h256c22.056,0,40-17.944,40-40v-24    h-16.208c5.08-6.704,8.208-14.96,8.208-24c0-13.128-6.448-24.704-16.248-32c9.8-7.296,16.248-18.872,16.248-32    c0-9.04-3.128-17.296-8.208-24H416V312z M304,56h80v24h-80V56z M304,96h80v24h-80V96z M272,56h16v64h-16V56z M216,40    c4.408,0,8,3.592,8,8s-3.592,8-8,8s-8-3.592-8-8S211.592,40,216,40z M216,104c4.408,0,8,3.592,8,8s-3.592,8-8,8s-8-3.592-8-8    S211.592,104,216,104z M400,448v8c0,13.232-10.768,24-24,24H120c-13.232,0-24-10.768-24-24v-8h40v-16h-8    c-13.232,0-24-10.768-24-24s10.768-24,24-24h120v8c0,13.232,10.768,24,24,24c2.808,0,5.496-0.488,8-1.368V432H152v16h132.448    c5.552,9.52,15.76,16,27.552,16s22-6.48,27.552-16H400z M185.92,320.904c2.352-0.616,4.28-0.904,6.08-0.904    c13.232,0,24,10.768,24,24s-10.768,24-24,24h-56c-13.232,0-24-10.768-24-24s10.768-24,24-24h8v-8c0-8.824,7.176-16,16-16    c8.824,0,16,7.176,16.016,15.536l-0.664,12.16L185.92,320.904z M223.824,320H304h24v112c0,8.824-7.176,16-16,16    c-8.824,0-16-7.176-16-16v-40v-40h-16v40c0,4.416-3.592,8-8,8c-4.408,0-8-3.584-8-8v-56h-16v32h-24.208    c5.08-6.704,8.208-14.96,8.208-24C232,334.968,228.896,326.704,223.824,320z M392,408c0,13.232-10.768,24-24,24h-24v-48h24    C381.232,384,392,394.768,392,408z M368,368h-24v-48h24c13.232,0,24,10.768,24,24S381.232,368,368,368z M368,304h-64H190.984    c-3.56-13.792-16.104-24-30.984-24s-27.368,10.224-30.936,24h-32.76c4.096-53.624,49.04-96,103.696-96h96    c54.656,0,99.6,42.376,103.696,96H368z" fill="#ff5978"/>
	</g>
</g>
<g>
	<g>
		<rect x="288" y="224" width="16" height="16" fill="#ff5978"/>
	</g>
</g>
<g>
	<g>
		<rect x="328" y="256" width="16" height="16" fill="#ff5978"/>
	</g>
</g>
<g>
	<g>
		<rect x="248" y="272" width="16" height="16" fill="#ff5978"/>
	</g>
</g>
<g>
	<g>
		<rect x="176" y="240" width="16" height="16" fill="#ff5978"/>
	</g>
</g>
<g>
</g>
<g>
</g>
<g>
</g>
<g>
</g>
<g>
</g>
<g>
</g>
<g>
</g>
<g>
</g>
<g>
</g>
<g>
</g>
<g>
</g>
<g>
</g>
<g>
</g>
<g>
</g>
<g>
</g>
</svg>
